HIERARCHY
ROOT ding_shaowen:Solving:Hips
{
	OFFSET 0.000000 0.000000 0.000000
	CHANNELS 6 Xposition Yposition Zposition Xrotation Yrotation Zrotation
	JOINT ding_shaowen:Solving:Spine
	{
		OFFSET 0.000000 -12.793800 2.116599
		CHANNELS 6 Xposition Yposition Zposition Xrotation Yrotation Zrotation
		JOINT ding_shaowen:Solving:Spine1
		{
			OFFSET 0.000000 -8.721180 1.537782
			CHANNELS 6 Xposition Yposition Zposition Xrotation Yrotation Zrotation
			JOINT ding_shaowen:Solving:Spine2
			{
				OFFSET 0.000000 -8.822016 0.771827
				CHANNELS 6 Xposition Yposition Zposition Xrotation Yrotation Zrotation
				JOINT ding_shaowen:Solving:Spine3
				{
					OFFSET 0.000000 -8.855719 0.000000
					CHANNELS 6 Xposition Yposition Zposition Xrotation Yrotation Zrotation
					JOINT ding_shaowen:Solving:Neck
					{
						OFFSET 0.000000 -11.385921 -1.138590
						CHANNELS 6 Xposition Yposition Zposition Xrotation Yrotation Zrotation
						JOINT ding_shaowen:Solving:Neck1
						{
							OFFSET 0.000000 -6.705494 -0.586653
							CHANNELS 6 Xposition Yposition Zposition Xrotation Yrotation Zrotation
							JOINT ding_shaowen:Solving:Head
							{
								OFFSET 0.000000 -6.628845 -1.168845
								CHANNELS 6 Xposition Yposition Zposition Xrotation Yrotation Zrotation
								JOINT ding_shaowen:Solving:HeadEnd
								{
									OFFSET 0.000000 -9.728077 0.000002
									CHANNELS 6 Xposition Yposition Zposition Xrotation Yrotation Zrotation
									End Site
									{
										OFFSET 0.000000 -9.728081 0.000002
									}
								}
							}
						}
					}
					JOINT ding_shaowen:Solving:RightShoulder
					{
						OFFSET 0.000000 -8.132801 -5.345683
						CHANNELS 6 Xposition Yposition Zposition Xrotation Yrotation Zrotation
						JOINT ding_shaowen:Solving:RightArm
						{
							OFFSET -20.692947 -0.000008 0.000000
							CHANNELS 6 Xposition Yposition Zposition Xrotation Yrotation Zrotation
							JOINT ding_shaowen:Solving:RightForeArm
							{
								OFFSET -30.243591 -0.000008 0.000000
								CHANNELS 6 Xposition Yposition Zposition Xrotation Yrotation Zrotation
								JOINT ding_shaowen:Solving:RightHand
								{
									OFFSET -24.757149 -0.000008 0.000000
									CHANNELS 6 Xposition Yposition Zposition Xrotation Yrotation Zrotation
									JOINT ding_shaowen:Solving:RightHandThumb1
									{
										OFFSET -3.599983 2.820858 -2.676913
										CHANNELS 6 Xposition Yposition Zposition Xrotation Yrotation Zrotation
										End Site
										{
											OFFSET -5.243469 0.000000 -5.291954
										}
									}
									JOINT ding_shaowen:Solving:RightHandMiddle1
									{
										OFFSET -9.599960 -0.000004 0.061538
										CHANNELS 6 Xposition Yposition Zposition Xrotation Yrotation Zrotation
										End Site
										{
											OFFSET -7.449745 -0.000004 0.000000
										}
									}
								}
							}
						}
					}
					JOINT ding_shaowen:Solving:LeftShoulder
					{
						OFFSET 0.000000 -8.132801 -5.345683
						CHANNELS 6 Xposition Yposition Zposition Xrotation Yrotation Zrotation
						JOINT ding_shaowen:Solving:LeftArm
						{
							OFFSET 20.692947 -0.000008 0.000000
							CHANNELS 6 Xposition Yposition Zposition Xrotation Yrotation Zrotation
							JOINT ding_shaowen:Solving:LeftForeArm
							{
								OFFSET 30.243591 -0.000008 0.000000
								CHANNELS 6 Xposition Yposition Zposition Xrotation Yrotation Zrotation
								JOINT ding_shaowen:Solving:LeftHand
								{
									OFFSET 24.757149 -0.000008 0.000000
									CHANNELS 6 Xposition Yposition Zposition Xrotation Yrotation Zrotation
									JOINT ding_shaowen:Solving:LeftHandThumb1
									{
										OFFSET 3.599983 2.820858 -2.676913
										CHANNELS 6 Xposition Yposition Zposition Xrotation Yrotation Zrotation
										End Site
										{
											OFFSET 5.243469 0.000000 -5.291954
										}
									}
									JOINT ding_shaowen:Solving:LeftHandMiddle1
									{
										OFFSET 9.599960 -0.000004 0.061538
										CHANNELS 6 Xposition Yposition Zposition Xrotation Yrotation Zrotation
										End Site
										{
											OFFSET 7.449745 -0.000004 0.000000
										}
									}
								}
							}
						}
					}
				}
			}
		}
	}
	JOINT ding_shaowen:Solving:RightUpLeg
	{
		OFFSET -11.038935 0.000000 0.000000
		CHANNELS 6 Xposition Yposition Zposition Xrotation Yrotation Zrotation
		JOINT ding_shaowen:Solving:RightLeg
		{
			OFFSET 0.000000 45.093018 -0.000006
			CHANNELS 6 Xposition Yposition Zposition Xrotation Yrotation Zrotation
			JOINT ding_shaowen:Solving:RightFoot
			{
				OFFSET 0.000000 38.174210 -0.000006
				CHANNELS 6 Xposition Yposition Zposition Xrotation Yrotation Zrotation
				JOINT ding_shaowen:Solving:RightForeFoot
				{
					OFFSET 0.000000 3.459915 -0.000000
					CHANNELS 6 Xposition Yposition Zposition Xrotation Yrotation Zrotation
					JOINT ding_shaowen:Solving:RightToeBase
					{
						OFFSET 0.000000 0.000000 -13.550137
						CHANNELS 6 Xposition Yposition Zposition Xrotation Yrotation Zrotation
						JOINT ding_shaowen:Solving:RightToeBaseEnd
						{
							OFFSET 0.000000 0.000000 -3.436555
							CHANNELS 6 Xposition Yposition Zposition Xrotation Yrotation Zrotation
							End Site
							{
								OFFSET 0.000000 -3.436554 0.000000
							}
						}
					}
				}
			}
		}
	}
	JOINT ding_shaowen:Solving:LeftUpLeg
	{
		OFFSET 11.038935 0.000000 0.000000
		CHANNELS 6 Xposition Yposition Zposition Xrotation Yrotation Zrotation
		JOINT ding_shaowen:Solving:LeftLeg
		{
			OFFSET 0.000000 45.093018 -0.000006
			CHANNELS 6 Xposition Yposition Zposition Xrotation Yrotation Zrotation
			JOINT ding_shaowen:Solving:LeftFoot
			{
				OFFSET 0.000000 38.174210 -0.000006
				CHANNELS 6 Xposition Yposition Zposition Xrotation Yrotation Zrotation
				JOINT ding_shaowen:Solving:LeftForeFoot
				{
					OFFSET 0.000000 3.459915 -0.000000
					CHANNELS 6 Xposition Yposition Zposition Xrotation Yrotation Zrotation
					JOINT ding_shaowen:Solving:LeftToeBase
					{
						OFFSET 0.000000 0.000000 -13.550137
						CHANNELS 6 Xposition Yposition Zposition Xrotation Yrotation Zrotation
						JOINT ding_shaowen:Solving:LeftToeBaseEnd
						{
							OFFSET 0.000000 0.000000 -4.223781
							CHANNELS 6 Xposition Yposition Zposition Xrotation Yrotation Zrotation
							End Site
							{
								OFFSET 0.000000 -4.223778 0.000000
							}
						}
					}
				}
			}
		}
	}
}
MOTION
Frames: 4
Frame Time: 0.041667
12.809950 -65.009766 -95.075516 86.454246 -5.368723 1.657062 0.000001 -12.793804 2.116619 11.130368 -0.371094 -2.221965 -0.000002 -8.721181 1.537783 -1.880550 -0.002489 -0.529860 0.000002 -8.822016 0.771841 -5.671811 -1.335500 -0.145315 -0.000003 -8.855739 -0.000002 -1.942819 0.100685 0.416178 0.000002 -11.385909 -1.138583 3.066980 0.004243 -0.803767 -0.000000 -6.705492 -0.586647 0.054331 2.788877 0.076171 -0.000001 -6.628866 -1.168840 6.147097 0.247681 -0.310127 -0.000002 -9.728107 0.000027 -0.000001 -0.000000 -0.000000 0.000001 -8.132778 -5.345674 0.000004 19.090864 3.536000 -20.692949 -0.000033 0.000005 -2.321961 -15.313098 -74.907948 -30.243593 -0.000018 -0.000020 25.798680 -3.448482 1.665513 -24.757143 -0.000002 0.000008 -6.611141 8.345613 38.608734 -3.600004 2.820859 -2.676919 0.000005 -0.000003 0.000002 -9.599965 0.000020 0.061527 0.000000 0.000000 0.000003 -0.000001 -8.132793 -5.345674 0.000004 -21.671132 -8.829485 20.692951 -0.000005 0.000015 -13.563212 11.174431 84.574995 30.243563 -0.000027 0.000003 -158.268160 0.399440 -0.159181 24.757147 -0.000031 -0.000018 -179.867212 3.853132 -1.975125 3.599991 2.820842 -2.676911 0.000004 -0.000005 -0.000000 9.599958 0.000004 0.061537 0.000000 0.000000 -0.000003 -11.038935 -0.000015 0.000027 5.281032 11.661658 3.095275 -0.000002 45.093018 0.000002 -2.212537 0.000000 -0.000001 -0.000004 38.174198 -0.000015 16.163996 4.263822 3.512242 0.000002 3.459908 0.000001 0.000004 -0.000000 0.000000 0.000004 0.000003 -13.550136 -19.661497 -0.000005 -0.000001 0.000003 -0.000000 -3.436548 0.000000 -0.000002 -0.000000 11.038934 -0.000009 0.000013 6.480586 -13.639994 -7.712718 0.000001 45.093014 0.000002 -5.188730 -0.000003 0.000000 0.000004 38.174210 -0.000010 18.624229 -9.619593 1.390153 0.000010 3.459915 0.000002 0.000001 0.000002 -0.000002 0.000015 -0.000011 -13.550125 1.690900 0.000003 -0.000002 -0.000002 0.000000 -4.223787 0.000001 0.000001 -0.000001 
12.811268 -65.003288 -95.075699 86.435873 -5.385250 1.658095 0.000003 -12.793813 2.116605 11.145563 -0.386985 -2.221187 0.000001 -8.721180 1.537772 -1.875981 -0.001774 -0.537715 0.000002 -8.821998 0.771809 -5.655751 -1.360415 -0.153821 -0.000001 -8.855715 -0.000013 -1.923176 0.095018 0.427639 0.000001 -11.385928 -1.138575 3.058984 -0.026174 -0.806039 0.000003 -6.705521 -0.586652 0.066436 2.810489 0.089214 0.000000 -6.628851 -1.168867 6.176104 0.244939 -0.291418 0.000001 -9.728085 0.000019 -0.000001 -0.000000 0.000000 0.000001 -8.132771 -5.345665 0.000004 19.077741 3.379107 -20.692944 -0.000003 0.000008 -0.947300 -18.046516 -75.602012 -30.243574 -0.000017 0.000007 23.722265 -4.437184 1.947179 -24.757164 -0.000008 -0.000006 -6.690897 8.542856 38.299323 -3.599989 2.820864 -2.676897 -0.000000 0.000002 0.000002 -9.599931 0.000024 0.061551 0.000000 0.000000 0.000008 0.000000 -8.132771 -5.345665 0.000003 -21.684292 -8.733585 20.692945 -0.000018 0.000023 -13.062700 12.463874 85.542676 30.243593 0.000005 -0.000010 -160.910774 0.207056 -0.071625 24.757135 -0.000000 0.000002 -179.905120 3.681522 -1.477199 3.600013 2.820842 -2.676917 0.000003 0.000003 0.000000 9.599954 -0.000008 0.061546 0.000000 0.000005 0.000001 -11.038934 -0.000010 -0.000003 5.310325 11.689691 3.091387 -0.000000 45.093029 -0.000019 -2.220851 -0.000001 0.000000 0.000001 38.174213 -0.000011 16.170102 4.249064 3.511552 0.000004 3.459915 -0.000004 -0.000001 0.000000 0.000000 0.000005 -0.000008 -13.550134 -19.700301 -0.000003 0.000000 0.000003 0.000007 -3.436556 -0.000000 -0.000002 -0.000001 11.038941 -0.000005 0.000005 6.483224 -13.659656 -7.720514 0.000008 45.093021 -0.000001 -5.160052 -0.000002 -0.000000 0.000008 38.174213 -0.000003 18.585735 -9.593598 1.438404 -0.000004 3.459915 0.000017 -0.000000 -0.000001 -0.000002 -0.000002 0.000002 -13.550137 1.744596 -0.000002 0.000000 0.000003 0.000001 -4.223794 0.000002 -0.000000 -0.000001 
12.807748 -65.006157 -95.077530 86.445763 -5.372433 1.652802 0.000002 -12.793826 2.116604 11.154137 -0.384549 -2.216691 0.000003 -8.721189 1.537787 -1.880571 -0.003583 -0.533458 -0.000001 -8.822021 0.771827 -5.647928 -1.416114 -0.158611 -0.000000 -8.855726 -0.000005 -1.901377 0.075893 0.422353 0.000000 -11.385910 -1.138599 3.041431 -0.043738 -0.800872 -0.000001 -6.705533 -0.586649 0.073416 2.824251 0.102305 0.000001 -6.628861 -1.168834 6.200437 0.242098 -0.275394 0.000003 -9.728100 0.000032 -0.000000 0.000000 0.000000 0.000001 -8.132801 -5.345687 0.000004 19.035389 3.222968 -20.692945 -0.000009 0.000006 -0.326076 -19.313753 -76.507483 -30.243612 -0.000009 -0.000006 23.110534 -4.826098 2.056276 -24.757149 -0.000011 0.000004 -6.524501 8.481508 37.791717 -3.599995 2.820848 -2.676917 0.000003 -0.000000 0.000005 -9.599972 0.000014 0.061534 -0.000002 0.000000 0.000005 0.000002 -8.132805 -5.345687 0.000003 -21.661448 -8.566283 20.692951 0.000002 0.000001 -12.652210 13.167249 86.396108 30.243614 -0.000012 0.000003 -163.162660 0.080640 -0.024371 24.757154 -0.000021 0.000002 -179.960417 3.773309 -0.601748 3.600006 2.820847 -2.676919 0.000002 0.000000 -0.000000 9.599949 0.000012 0.061533 0.000000 0.000004 -0.000005 -11.038936 -0.000034 0.000001 5.288664 11.694765 3.097094 0.000000 45.093018 -0.000017 -2.206998 -0.000000 0.000001 0.000001 38.174213 -0.000030 16.155108 4.244638 3.517716 -0.000002 3.459915 0.000011 0.000001 0.000000 -0.000000 0.000003 0.000020 -13.550139 -19.670707 -0.000002 0.000002 0.000001 0.000000 -3.436559 0.000000 -0.000003 -0.000001 11.038938 -0.000021 0.000006 6.477059 -13.623390 -7.716578 -0.000001 45.093025 -0.000015 -5.154698 0.000000 -0.000000 0.000008 38.174210 -0.000002 18.598636 -9.627911 1.460047 0.000002 3.459915 0.000012 0.000004 -0.000001 -0.000001 0.000008 -0.000007 -13.550135 1.742039 -0.000004 -0.000000 0.000008 -0.000007 -4.223766 0.000002 0.000002 -0.000003 
12.808074 -65.005943 -95.079445 86.448960 -5.366267 1.643168 0.000002 -12.793816 2.116580 11.156895 -0.384870 -2.207848 -0.000000 -8.721160 1.537760 -1.874798 -0.005439 -0.531263 0.000002 -8.822017 0.771830 -5.643460 -1.478786 -0.165922 -0.000000 -8.855712 0.000016 -1.872962 0.059192 0.418106 0.000002 -11.385965 -1.138593 3.033537 -0.068833 -0.787694 0.000001 -6.705516 -0.586658 0.081488 2.854882 0.104185 -0.000003 -6.628860 -1.168839 6.205718 0.243415 -0.275025 -0.000002 -9.728107 0.000010 -0.000000 -0.000000 0.000000 0.000001 -8.132851 -5.345684 0.000004 18.965227 3.038971 -20.692940 -0.000002 -0.000003 0.158657 -20.198531 -77.432625 -30.243603 -0.000017 0.000012 22.961387 -5.183689 2.192193 -24.757154 -0.000027 0.000007 -6.595106 8.698076 37.399339 -3.600009 2.820836 -2.676912 0.000001 0.000002 0.000006 -9.599963 0.000013 0.061533 -0.000000 0.000005 0.000006 0.000000 -8.132854 -5.345684 0.000005 -21.637083 -8.489996 20.692955 -0.000012 0.000009 -12.246122 13.950663 87.352519 30.243557 -0.000007 0.000004 -164.838788 -0.176852 0.047961 24.757145 0.000001 0.000000 -179.996440 3.459910 -0.058939 3.599986 2.820856 -2.676916 0.000004 0.000003 -0.000007 9.599938 0.000017 0.061539 -0.000000 0.000002 -0.000008 -11.038935 0.000000 -0.000015 5.276533 11.710442 3.108184 -0.000003 45.093018 0.000002 -2.195259 -0.000001 0.000000 -0.000003 38.174221 -0.000024 16.141953 4.232386 3.506113 0.000000 3.459907 0.000000 -0.000001 0.000000 -0.000001 -0.000002 0.000005 -13.550126 -19.665633 -0.000004 0.000000 -0.000001 0.000000 -3.436546 0.000000 -0.000002 -0.000001 11.038941 -0.000009 -0.000004 6.470272 -13.617999 -7.707381 -0.000004 45.093014 -0.000005 -5.142756 -0.000002 0.000000 0.000008 38.174210 -0.000026 18.635092 -9.619375 1.412611 0.000002 3.459923 0.000005 0.000001 -0.000003 -0.000004 0.000007 0.000002 -13.550136 1.610171 -0.000002 0.000000 -0.000002 -0.000000 -4.223784 -0.000000 -0.000003 -0.000002 
